<?xml version="1.0" encoding="UTF-8"?>
<svg xmlns="http://www.w3.org/2000/svg" viewBox="0 0 346.28 483.28">
  <defs>
    <style>
      .cls-1 {
        fill: #aaa;
      }

      .cls-1, .cls-2, .cls-3, .cls-4 {
        stroke-width: 0px;
      }

      .cls-2 {
        fill: #cbcbcb;
      }

      .cls-3 {
        fill: #fd9473;
      }

      .cls-5 {
        fill: #fff;
        stroke: #3f3f3f;
        stroke-miterlimit: 10;
      }

      .cls-4 {
        fill: #000;
      }
    </style>
  </defs>
  <g id="Capa_3" data-name="Capa 3">
    <rect class="cls-3" x="111.09" y="162.49" width="152.07" height="299.16"/>
    <g>
      <path class="cls-4" d="M136.84,207.11c.79-.12,1.74-.21,2.78-.21,1.88,0,3.21.43,4.09,1.26.9.83,1.42,2,1.42,3.63s-.51,3-1.46,3.93c-.94.95-2.5,1.46-4.47,1.46-.93,0-1.71-.04-2.37-.12v-9.94ZM138.14,216.05c.33.06.81.08,1.32.08,2.79,0,4.3-1.56,4.3-4.29.02-2.38-1.33-3.9-4.09-3.9-.67,0-1.18.06-1.53.13v7.98Z"/>
      <path class="cls-4" d="M148.25,207.79c.02.45-.31.81-.84.81-.46,0-.79-.36-.79-.81s.35-.83.83-.83.81.36.81.83ZM146.78,217.09v-7.26h1.32v7.26h-1.32Z"/>
      <path class="cls-4" d="M150.11,215.74c.39.25,1.08.52,1.74.52.96,0,1.41-.48,1.41-1.08s-.38-.97-1.35-1.33c-1.3-.46-1.92-1.18-1.92-2.05,0-1.17.95-2.13,2.5-2.13.74,0,1.38.21,1.79.45l-.33.96c-.29-.18-.81-.42-1.49-.42-.78,0-1.21.45-1.21.99,0,.6.44.87,1.38,1.23,1.26.48,1.91,1.11,1.91,2.19,0,1.28-.99,2.18-2.71,2.18-.79,0-1.53-.2-2.04-.5l.33-1Z"/>
      <path class="cls-4" d="M156.97,213.7c.03,1.79,1.17,2.52,2.49,2.52.95,0,1.52-.17,2.01-.38l.22.95c-.46.21-1.26.45-2.42.45-2.23,0-3.57-1.47-3.57-3.66s1.29-3.92,3.4-3.92c2.37,0,3,2.08,3,3.42,0,.27-.03.48-.04.62h-5.1ZM160.84,212.75c.01-.84-.35-2.14-1.83-2.14-1.33,0-1.92,1.23-2.03,2.14h3.86Z"/>
      <path class="cls-4" d="M163.75,211.79c0-.75-.01-1.37-.06-1.96h1.17l.08,1.2h.03c.36-.69,1.2-1.37,2.4-1.37,1,0,2.56.6,2.56,3.09v4.33h-1.32v-4.18c0-1.17-.44-2.15-1.68-2.15-.87,0-1.54.62-1.77,1.35-.06.17-.09.39-.09.61v4.37h-1.32v-5.29ZM164.98,208.58c-.03-.97.38-1.56,1.02-1.56.33,0,.58.13.93.33.24.13.45.25.63.25.24,0,.39-.13.42-.65h.7c.02,1.01-.33,1.52-1.03,1.52-.32,0-.6-.14-.92-.3-.3-.18-.46-.27-.65-.27-.24,0-.36.25-.39.67h-.72Z"/>
      <path class="cls-4" d="M176.09,217.09l-.11-.92h-.04c-.41.57-1.18,1.08-2.22,1.08-1.47,0-2.22-1.04-2.22-2.08,0-1.75,1.56-2.71,4.36-2.7v-.15c0-.6-.17-1.68-1.65-1.68-.68,0-1.38.21-1.89.54l-.3-.87c.6-.39,1.47-.65,2.38-.65,2.22,0,2.76,1.51,2.76,2.97v2.71c0,.63.03,1.25.12,1.74h-1.2ZM175.9,213.38c-1.44-.03-3.08.23-3.08,1.63,0,.86.57,1.26,1.25,1.26.95,0,1.54-.6,1.75-1.22.04-.13.08-.28.08-.42v-1.26Z"/>
      <path class="cls-4" d="M185.57,206.44v8.77c0,.65.02,1.38.06,1.88h-1.19l-.06-1.26h-.03c-.4.81-1.29,1.42-2.47,1.42-1.75,0-3.1-1.49-3.1-3.69-.02-2.42,1.48-3.9,3.25-3.9,1.11,0,1.86.53,2.19,1.11h.03v-4.33h1.32ZM184.25,212.78c0-.17-.02-.39-.06-.55-.19-.84-.92-1.53-1.9-1.53-1.37,0-2.17,1.2-2.17,2.8,0,1.47.72,2.68,2.14,2.68.88,0,1.7-.58,1.93-1.57.04-.18.06-.36.06-.57v-1.26Z"/>
      <path class="cls-4" d="M194.33,213.4c0,2.68-1.86,3.85-3.62,3.85-1.96,0-3.48-1.44-3.48-3.74,0-2.43,1.59-3.85,3.6-3.85s3.5,1.51,3.5,3.74ZM188.57,213.47c0,1.59.92,2.79,2.2,2.79s2.21-1.18,2.21-2.82c0-1.23-.61-2.79-2.17-2.79s-2.23,1.44-2.23,2.82Z"/>
      <path class="cls-4" d="M196,212.09c0-.85-.01-1.59-.06-2.26h1.15l.05,1.42h.06c.33-.97,1.12-1.59,2.01-1.59.15,0,.25.01.38.04v1.25c-.13-.03-.27-.04-.45-.04-.93,0-1.59.71-1.77,1.7-.03.18-.06.39-.06.61v3.87h-1.31v-5Z"/>
      <path class="cls-4" d="M199.79,217.69l4.18-10.87h1.02l-4.2,10.87h-1Z"/>
      <path class="cls-4" d="M210.07,217.09l-.11-.92h-.04c-.41.57-1.18,1.08-2.22,1.08-1.47,0-2.22-1.04-2.22-2.08,0-1.75,1.56-2.71,4.36-2.7v-.15c0-.6-.17-1.68-1.65-1.68-.68,0-1.38.21-1.89.54l-.3-.87c.6-.39,1.47-.65,2.38-.65,2.22,0,2.76,1.51,2.76,2.97v2.71c0,.63.03,1.25.12,1.74h-1.2ZM209.87,213.38c-1.44-.03-3.08.23-3.08,1.63,0,.86.57,1.26,1.25,1.26.95,0,1.54-.6,1.75-1.22.04-.13.08-.28.08-.42v-1.26Z"/>
      <path class="cls-4" d="M221.63,216.82c-.34.18-1.11.42-2.08.42-2.19,0-3.61-1.49-3.61-3.71s1.53-3.86,3.9-3.86c.78,0,1.47.2,1.83.38l-.3,1.02c-.32-.18-.81-.34-1.53-.34-1.67,0-2.56,1.23-2.56,2.74,0,1.68,1.08,2.71,2.52,2.71.75,0,1.25-.19,1.62-.36l.22.99Z"/>
      <path class="cls-4" d="M229.66,213.4c0,2.68-1.86,3.85-3.62,3.85-1.96,0-3.48-1.44-3.48-3.74,0-2.43,1.59-3.85,3.6-3.85s3.5,1.51,3.5,3.74ZM223.9,213.47c0,1.59.92,2.79,2.2,2.79s2.21-1.18,2.21-2.82c0-1.23-.61-2.79-2.17-2.79s-2.23,1.44-2.23,2.82Z"/>
      <path class="cls-4" d="M231.32,211.79c0-.75-.01-1.37-.06-1.96h1.17l.08,1.2h.03c.36-.69,1.2-1.37,2.4-1.37,1,0,2.56.6,2.56,3.09v4.33h-1.32v-4.18c0-1.17-.44-2.15-1.68-2.15-.87,0-1.54.62-1.77,1.35-.06.17-.09.39-.09.61v4.37h-1.32v-5.29Z"/>
      <path class="cls-4" d="M151.14,229.79c0-.75-.01-1.37-.06-1.96h1.15l.06,1.17h.04c.41-.69,1.08-1.33,2.28-1.33.99,0,1.74.6,2.05,1.46h.03c.22-.41.51-.72.81-.95.43-.33.92-.51,1.6-.51.96,0,2.39.63,2.39,3.15v4.27h-1.29v-4.11c0-1.4-.51-2.24-1.58-2.24-.75,0-1.33.55-1.56,1.2-.06.18-.11.42-.11.66v4.48h-1.29v-4.35c0-1.16-.51-2-1.51-2-.83,0-1.42.66-1.63,1.32-.08.19-.11.42-.11.64v4.38h-1.29v-5.29Z"/>
      <path class="cls-4" d="M164.39,231.7c.03,1.79,1.17,2.52,2.49,2.52.95,0,1.52-.17,2.01-.38l.22.95c-.46.21-1.26.45-2.42.45-2.23,0-3.57-1.47-3.57-3.66s1.29-3.92,3.4-3.92c2.37,0,3,2.08,3,3.42,0,.27-.03.48-.04.62h-5.1ZM168.26,230.75c.01-.84-.35-2.14-1.83-2.14-1.33,0-1.92,1.23-2.03,2.14h3.86Z"/>
      <path class="cls-4" d="M171.17,229.79c0-.75-.01-1.37-.06-1.96h1.17l.08,1.2h.03c.36-.69,1.2-1.37,2.4-1.37,1,0,2.56.6,2.56,3.09v4.33h-1.32v-4.18c0-1.17-.44-2.15-1.68-2.15-.87,0-1.54.62-1.77,1.35-.06.17-.09.39-.09.61v4.37h-1.32v-5.29Z"/>
      <path class="cls-4" d="M184.67,234.82c-.34.18-1.11.42-2.08.42-2.19,0-3.61-1.49-3.61-3.71s1.53-3.86,3.9-3.86c.78,0,1.47.2,1.83.38l-.3,1.02c-.32-.18-.81-.34-1.53-.34-1.67,0-2.56,1.23-2.56,2.74,0,1.68,1.08,2.71,2.52,2.71.75,0,1.25-.19,1.62-.36l.22.99Z"/>
      <path class="cls-4" d="M187.68,225.79c.02.45-.31.81-.84.81-.46,0-.79-.36-.79-.81s.35-.83.83-.83.81.36.81.83ZM186.21,235.09v-7.26h1.32v7.26h-1.32Z"/>
      <path class="cls-4" d="M196.29,231.4c0,2.68-1.86,3.85-3.62,3.85-1.96,0-3.48-1.44-3.48-3.74,0-2.43,1.59-3.85,3.6-3.85s3.5,1.51,3.5,3.74ZM190.53,231.47c0,1.59.92,2.79,2.2,2.79s2.21-1.18,2.21-2.82c0-1.23-.61-2.79-2.17-2.79s-2.23,1.44-2.23,2.82ZM194.72,224.69l-1.83,2.14h-.95l1.32-2.14h1.46Z"/>
      <path class="cls-4" d="M197.96,229.79c0-.75-.01-1.37-.06-1.96h1.17l.08,1.2h.03c.36-.69,1.2-1.37,2.4-1.37,1,0,2.56.6,2.56,3.09v4.33h-1.32v-4.18c0-1.17-.44-2.15-1.68-2.15-.87,0-1.54.62-1.77,1.35-.06.17-.09.39-.09.61v4.37h-1.32v-5.29Z"/>
      <path class="cls-4" d="M210.2,231.7c.03,1.79,1.17,2.52,2.49,2.52.94,0,1.51-.17,2.01-.38l.22.95c-.46.21-1.26.45-2.42.45-2.23,0-3.57-1.47-3.57-3.66s1.29-3.92,3.4-3.92c2.37,0,3,2.08,3,3.42,0,.27-.03.48-.04.62h-5.1ZM214.07,230.75c.01-.84-.35-2.14-1.83-2.14-1.33,0-1.92,1.23-2.03,2.14h3.86Z"/>
      <path class="cls-4" d="M216.98,229.79c0-.75-.01-1.37-.06-1.96h1.17l.08,1.2h.03c.36-.69,1.2-1.37,2.4-1.37,1,0,2.56.6,2.56,3.09v4.33h-1.32v-4.18c0-1.17-.44-2.15-1.68-2.15-.87,0-1.54.62-1.77,1.35-.06.17-.09.39-.09.61v4.37h-1.32v-5.29Z"/>
      <path class="cls-4" d="M128.73,253.09l-3.3-10.11h1.41l1.58,4.98c.43,1.37.81,2.59,1.08,3.78h.03c.28-1.17.7-2.45,1.15-3.77l1.71-4.99h1.4l-3.62,10.11h-1.44Z"/>
      <path class="cls-4" d="M136.07,243.79c.02.45-.31.81-.84.81-.46,0-.79-.36-.79-.81s.35-.83.83-.83.81.36.81.83ZM134.6,253.09v-7.26h1.32v7.26h-1.32Z"/>
      <path class="cls-4" d="M137.93,251.74c.39.25,1.08.52,1.74.52.96,0,1.41-.48,1.41-1.08s-.38-.97-1.35-1.33c-1.3-.46-1.92-1.18-1.92-2.05,0-1.17.95-2.13,2.5-2.13.74,0,1.38.21,1.79.45l-.33.96c-.29-.18-.81-.42-1.49-.42-.78,0-1.21.45-1.21.99,0,.6.44.87,1.38,1.23,1.26.48,1.91,1.11,1.91,2.19,0,1.28-.99,2.18-2.71,2.18-.79,0-1.53-.2-2.04-.5l.33-1Z"/>
      <path class="cls-4" d="M150.12,251.11c0,.75.01,1.41.06,1.98h-1.17l-.08-1.18h-.03c-.35.58-1.11,1.35-2.4,1.35-1.14,0-2.5-.63-2.5-3.18v-4.25h1.32v4.02c0,1.38.42,2.31,1.62,2.31.88,0,1.5-.62,1.74-1.2.08-.2.12-.43.12-.67v-4.46h1.32v5.28Z"/>
      <path class="cls-4" d="M156.33,253.09l-.11-.92h-.04c-.41.57-1.18,1.08-2.22,1.08-1.47,0-2.22-1.04-2.22-2.08,0-1.75,1.56-2.71,4.36-2.7v-.15c0-.6-.17-1.68-1.65-1.68-.68,0-1.38.21-1.89.54l-.3-.87c.6-.39,1.47-.65,2.38-.65,2.22,0,2.76,1.51,2.76,2.97v2.71c0,.63.03,1.25.12,1.74h-1.2ZM156.14,249.38c-1.44-.03-3.08.23-3.08,1.63,0,.86.57,1.26,1.25,1.26.95,0,1.54-.6,1.75-1.22.04-.13.08-.28.08-.42v-1.26Z"/>
      <path class="cls-4" d="M159.54,242.44h1.32v10.65h-1.32v-10.65Z"/>
      <path class="cls-4" d="M164.55,243.79c.02.45-.31.81-.84.81-.46,0-.79-.36-.79-.81s.35-.83.83-.83.81.36.81.83ZM163.08,253.09v-7.26h1.32v7.26h-1.32Z"/>
      <path class="cls-4" d="M172.86,242.44v8.77c0,.65.02,1.38.06,1.88h-1.18l-.06-1.26h-.03c-.4.81-1.29,1.42-2.47,1.42-1.75,0-3.1-1.49-3.1-3.69-.02-2.42,1.48-3.9,3.25-3.9,1.11,0,1.86.53,2.19,1.11h.03v-4.33h1.32ZM171.54,248.78c0-.17-.02-.39-.06-.55-.19-.84-.92-1.53-1.9-1.53-1.37,0-2.17,1.2-2.17,2.8,0,1.47.72,2.68,2.14,2.68.88,0,1.7-.58,1.93-1.57.04-.18.06-.36.06-.57v-1.26Z"/>
      <path class="cls-4" d="M179.07,253.09l-.11-.92h-.04c-.41.57-1.18,1.08-2.22,1.08-1.47,0-2.22-1.04-2.22-2.08,0-1.75,1.56-2.71,4.36-2.7v-.15c0-.6-.17-1.68-1.65-1.68-.68,0-1.38.21-1.89.54l-.3-.87c.6-.39,1.47-.65,2.38-.65,2.22,0,2.76,1.51,2.76,2.97v2.71c0,.63.03,1.25.12,1.74h-1.2ZM178.88,249.38c-1.44-.03-3.08.23-3.08,1.63,0,.86.57,1.26,1.25,1.26.95,0,1.54-.6,1.75-1.22.04-.13.08-.28.08-.42v-1.26Z"/>
      <path class="cls-4" d="M188.55,242.44v8.77c0,.65.02,1.38.06,1.88h-1.18l-.06-1.26h-.03c-.4.81-1.29,1.42-2.47,1.42-1.75,0-3.1-1.49-3.1-3.69-.02-2.42,1.48-3.9,3.25-3.9,1.11,0,1.86.53,2.19,1.11h.03v-4.33h1.32ZM187.23,248.78c0-.17-.02-.39-.06-.55-.19-.84-.92-1.53-1.9-1.53-1.37,0-2.17,1.2-2.17,2.8,0,1.47.72,2.68,2.14,2.68.88,0,1.7-.58,1.93-1.57.04-.18.06-.36.06-.57v-1.26Z"/>
      <path class="cls-4" d="M194.4,245.83l1.59,4.29c.17.48.34,1.05.46,1.48h.03c.13-.43.29-.99.46-1.51l1.44-4.26h1.4l-1.98,5.17c-.94,2.49-1.59,3.76-2.49,4.54-.65.57-1.29.79-1.62.85l-.33-1.11c.33-.11.76-.32,1.16-.65.36-.28.81-.79,1.11-1.47.06-.13.11-.24.11-.31s-.03-.18-.09-.35l-2.69-6.69h1.44Z"/>
      <path class="cls-4" d="M212.73,248.65c-.07-1.41-.17-3.11-.15-4.37h-.04c-.35,1.18-.77,2.45-1.28,3.84l-1.79,4.91h-.99l-1.63-4.82c-.48-1.42-.89-2.73-1.17-3.93h-.03c-.03,1.26-.11,2.96-.2,4.47l-.27,4.33h-1.25l.71-10.11h1.67l1.72,4.89c.42,1.25.76,2.35,1.02,3.41h.04c.26-1.02.62-2.13,1.07-3.41l1.8-4.89h1.67l.63,10.11h-1.27l-.26-4.44Z"/>
      <path class="cls-4" d="M217.05,249.7c.03,1.79,1.17,2.52,2.49,2.52.95,0,1.52-.17,2.01-.38l.22.95c-.46.21-1.26.45-2.42.45-2.23,0-3.57-1.47-3.57-3.66s1.29-3.92,3.4-3.92c2.37,0,3,2.08,3,3.42,0,.27-.03.48-.04.62h-5.1ZM220.92,248.75c.01-.84-.35-2.14-1.83-2.14-1.33,0-1.92,1.23-2.03,2.14h3.86Z"/>
      <path class="cls-4" d="M230.1,242.44v8.77c0,.65.02,1.38.06,1.88h-1.18l-.06-1.26h-.03c-.4.81-1.29,1.42-2.47,1.42-1.75,0-3.1-1.49-3.1-3.69-.02-2.42,1.48-3.9,3.25-3.9,1.11,0,1.86.53,2.19,1.11h.03v-4.33h1.32ZM228.78,248.78c0-.17-.02-.39-.06-.55-.19-.84-.92-1.53-1.9-1.53-1.37,0-2.17,1.2-2.17,2.8,0,1.47.72,2.68,2.14,2.68.88,0,1.7-.58,1.93-1.57.04-.18.06-.36.06-.57v-1.26Z"/>
      <path class="cls-4" d="M233.76,243.79c.02.45-.31.81-.84.81-.46,0-.79-.36-.79-.81s.35-.83.83-.83.81.36.81.83ZM232.29,253.09v-7.26h1.32v7.26h-1.32Z"/>
      <path class="cls-4" d="M242.37,249.4c0,2.68-1.86,3.85-3.62,3.85-1.96,0-3.48-1.44-3.48-3.74,0-2.43,1.59-3.85,3.6-3.85s3.5,1.51,3.5,3.74ZM236.61,249.47c0,1.59.92,2.79,2.2,2.79s2.21-1.18,2.21-2.82c0-1.23-.61-2.79-2.17-2.79s-2.23,1.44-2.23,2.82Z"/>
      <path class="cls-4" d="M243.86,251.74c.39.25,1.08.52,1.74.52.96,0,1.41-.48,1.41-1.08s-.38-.97-1.35-1.33c-1.3-.46-1.92-1.18-1.92-2.05,0-1.17.95-2.13,2.5-2.13.74,0,1.38.21,1.79.45l-.33.96c-.29-.18-.81-.42-1.49-.42-.78,0-1.21.45-1.21.99,0,.6.44.87,1.38,1.23,1.26.48,1.91,1.11,1.91,2.19,0,1.28-.99,2.18-2.71,2.18-.79,0-1.53-.2-2.04-.5l.33-1Z"/>
    </g>
  </g>
  <g id="Layer_2" data-name="Layer 2">
    <line class="cls-5" x1="30.35" y1="461.66" x2="341.17" y2="461.66"/>
    <circle class="cls-1" cx="341.17" cy="461.66" r="5.11"/>
    <g>
      <path class="cls-1" d="M133.12,468.91h-3.69v-1.33h8.98v1.33h-3.71v10.8h-1.58v-10.8Z"/>
      <path class="cls-1" d="M141.25,468.55c.02.54-.38.97-1.01.97-.56,0-.95-.43-.95-.97s.41-.99.99-.99.97.43.97.99ZM139.49,479.71v-8.71h1.58v8.71h-1.58Z"/>
      <path class="cls-1" d="M145.61,468.5v2.5h2.27v1.21h-2.27v4.7c0,1.08.31,1.69,1.19,1.69.41,0,.72-.05.92-.11l.07,1.19c-.31.13-.79.22-1.4.22-.74,0-1.33-.23-1.71-.67-.45-.47-.61-1.24-.61-2.27v-4.75h-1.35v-1.21h1.35v-2.09l1.55-.42Z"/>
      <path class="cls-1" d="M156.95,477.34c0,.9.02,1.69.07,2.38h-1.4l-.09-1.42h-.04c-.41.7-1.33,1.62-2.88,1.62-1.37,0-3.01-.76-3.01-3.82v-5.1h1.58v4.83c0,1.66.5,2.77,1.94,2.77,1.06,0,1.8-.74,2.09-1.44.09-.23.14-.52.14-.81v-5.35h1.58v6.34Z"/>
      <path class="cls-1" d="M159.58,466.93h1.58v12.78h-1.58v-12.78Z"/>
      <path class="cls-1" d="M171.71,475.29c0,3.22-2.23,4.63-4.34,4.63-2.36,0-4.18-1.73-4.18-4.48,0-2.92,1.91-4.63,4.32-4.63s4.2,1.82,4.2,4.48ZM164.8,475.38c0,1.91,1.1,3.35,2.65,3.35s2.65-1.42,2.65-3.38c0-1.48-.74-3.35-2.61-3.35s-2.68,1.73-2.68,3.39Z"/>
      <path class="cls-1" d="M177.52,473.84c0-1.12-.04-2.02-.07-2.84h1.42l.07,1.5h.04c.65-1.06,1.67-1.69,3.1-1.69,2.11,0,3.69,1.78,3.69,4.43,0,3.13-1.91,4.68-3.96,4.68-1.15,0-2.16-.5-2.68-1.37h-.04v4.74h-1.57v-9.44ZM179.09,476.17c0,.23.04.45.07.65.29,1.1,1.24,1.85,2.38,1.85,1.67,0,2.65-1.37,2.65-3.37,0-1.75-.92-3.24-2.59-3.24-1.08,0-2.09.77-2.39,1.96-.05.2-.11.43-.11.65v1.49Z"/>
      <path class="cls-1" d="M187.76,473.72c0-1.03-.02-1.91-.07-2.72h1.39l.05,1.71h.07c.4-1.17,1.35-1.91,2.41-1.91.18,0,.31.02.45.05v1.49c-.16-.04-.32-.05-.54-.05-1.12,0-1.91.85-2.12,2.03-.04.22-.07.47-.07.74v4.65h-1.57v-6Z"/>
      <path class="cls-1" d="M201.36,475.29c0,3.22-2.23,4.63-4.34,4.63-2.36,0-4.18-1.73-4.18-4.48,0-2.92,1.91-4.63,4.32-4.63s4.2,1.82,4.2,4.48ZM194.44,475.38c0,1.91,1.1,3.35,2.65,3.35s2.65-1.42,2.65-3.38c0-1.48-.74-3.35-2.61-3.35s-2.68,1.73-2.68,3.39Z"/>
      <path class="cls-1" d="M203.51,479.71v-7.51h-1.22v-1.21h1.22v-.41c0-1.22.27-2.34,1.01-3.04.59-.58,1.39-.81,2.12-.81.56,0,1.04.13,1.35.25l-.22,1.22c-.23-.11-.56-.2-1.01-.2-1.35,0-1.69,1.19-1.69,2.52v.47h2.11v1.21h-2.11v7.51h-1.57Z"/>
      <path class="cls-1" d="M209.26,475.65c.04,2.14,1.41,3.03,2.99,3.03,1.13,0,1.82-.2,2.41-.45l.27,1.13c-.56.25-1.51.54-2.9.54-2.68,0-4.29-1.76-4.29-4.39s1.55-4.7,4.09-4.7c2.84,0,3.6,2.5,3.6,4.11,0,.32-.04.58-.05.74h-6.12ZM213.9,474.51c.02-1.01-.41-2.58-2.2-2.58-1.6,0-2.3,1.48-2.43,2.58h4.63Z"/>
      <path class="cls-1" d="M217.18,478.09c.47.31,1.3.63,2.09.63,1.15,0,1.69-.58,1.69-1.3s-.45-1.17-1.62-1.6c-1.57-.56-2.3-1.42-2.3-2.47,0-1.41,1.13-2.56,3.01-2.56.88,0,1.66.25,2.14.54l-.4,1.15c-.34-.22-.97-.5-1.78-.5-.94,0-1.46.54-1.46,1.19,0,.72.52,1.04,1.66,1.48,1.51.58,2.29,1.33,2.29,2.63,0,1.53-1.19,2.61-3.26,2.61-.96,0-1.84-.23-2.45-.59l.4-1.21Z"/>
      <path class="cls-1" d="M226.28,468.55c.02.54-.38.97-1.01.97-.56,0-.95-.43-.95-.97s.41-.99.99-.99.97.43.97.99ZM224.52,479.71v-8.71h1.58v8.71h-1.58Z"/>
      <path class="cls-1" d="M236.62,475.29c0,3.22-2.23,4.63-4.34,4.63-2.36,0-4.18-1.73-4.18-4.48,0-2.92,1.91-4.63,4.32-4.63s4.2,1.82,4.2,4.48ZM229.7,475.38c0,1.91,1.1,3.35,2.65,3.35s2.65-1.42,2.65-3.38c0-1.48-.74-3.35-2.61-3.35s-2.68,1.73-2.68,3.39Z"/>
      <path class="cls-1" d="M238.61,473.36c0-.9-.02-1.64-.07-2.36h1.4l.09,1.44h.04c.43-.83,1.44-1.64,2.88-1.64,1.21,0,3.08.72,3.08,3.71v5.2h-1.58v-5.02c0-1.4-.52-2.58-2.02-2.58-1.04,0-1.85.74-2.12,1.62-.07.2-.11.47-.11.74v5.24h-1.58v-6.36Z"/>
      <path class="cls-1" d="M253.43,479.71l-.13-1.1h-.05c-.49.68-1.42,1.3-2.67,1.3-1.76,0-2.67-1.24-2.67-2.5,0-2.11,1.87-3.26,5.24-3.24v-.18c0-.72-.2-2.02-1.98-2.02-.81,0-1.66.25-2.27.65l-.36-1.04c.72-.47,1.76-.77,2.86-.77,2.67,0,3.31,1.82,3.31,3.57v3.26c0,.76.04,1.5.14,2.09h-1.44ZM253.19,475.27c-1.73-.04-3.69.27-3.69,1.96,0,1.03.68,1.51,1.49,1.51,1.13,0,1.85-.72,2.11-1.46.05-.16.09-.34.09-.5v-1.51Z"/>
      <path class="cls-1" d="M257.28,466.93h1.58v12.78h-1.58v-12.78Z"/>
    </g>
    <g>
      <path class="cls-1" d="M6.28,7.09H1.57v4.38h5.26v1.31H0V.65h6.55v1.31H1.57v3.83h4.72v1.3Z"/>
      <path class="cls-1" d="M16.2,4.07c-.04.63-.07,1.33-.07,2.39v5.06c0,2-.4,3.22-1.24,3.98-.85.79-2.07,1.04-3.17,1.04s-2.2-.25-2.9-.72l.4-1.21c.58.36,1.48.68,2.56.68,1.62,0,2.81-.85,2.81-3.04v-.97h-.04c-.49.81-1.42,1.46-2.77,1.46-2.16,0-3.71-1.84-3.71-4.25,0-2.95,1.93-4.63,3.92-4.63,1.51,0,2.34.79,2.72,1.51h.04l.07-1.31h1.39ZM14.56,7.51c0-.27-.02-.5-.09-.72-.29-.92-1.06-1.67-2.21-1.67-1.51,0-2.59,1.28-2.59,3.29,0,1.71.86,3.13,2.57,3.13.97,0,1.85-.61,2.2-1.62.09-.27.13-.58.13-.85v-1.57Z"/>
      <path class="cls-1" d="M18.65,6.79c0-1.03-.02-1.91-.07-2.72h1.39l.05,1.71h.07c.4-1.17,1.35-1.91,2.41-1.91.18,0,.31.02.45.05v1.49c-.16-.04-.32-.05-.54-.05-1.12,0-1.91.85-2.12,2.03-.04.22-.07.47-.07.74v4.65h-1.57v-6Z"/>
      <path class="cls-1" d="M25.24,8.71c.04,2.14,1.41,3.03,2.99,3.03,1.13,0,1.82-.2,2.41-.45l.27,1.13c-.56.25-1.51.54-2.9.54-2.68,0-4.29-1.76-4.29-4.39s1.55-4.7,4.09-4.7c2.84,0,3.6,2.5,3.6,4.11,0,.32-.04.58-.05.74h-6.12ZM29.88,7.58c.02-1.01-.41-2.58-2.2-2.58-1.6,0-2.3,1.48-2.43,2.58h4.63Z"/>
      <path class="cls-1" d="M33.16,11.16c.47.31,1.3.63,2.09.63,1.15,0,1.69-.58,1.69-1.3s-.45-1.17-1.62-1.6c-1.57-.56-2.3-1.42-2.3-2.47,0-1.41,1.13-2.56,3.01-2.56.88,0,1.66.25,2.14.54l-.4,1.15c-.34-.22-.97-.5-1.78-.5-.94,0-1.46.54-1.46,1.19,0,.72.52,1.04,1.66,1.48,1.51.58,2.29,1.33,2.29,2.63,0,1.53-1.19,2.61-3.26,2.61-.96,0-1.84-.23-2.45-.59l.4-1.21Z"/>
      <path class="cls-1" d="M45.33,12.78l-.13-1.1h-.05c-.49.68-1.42,1.3-2.67,1.3-1.76,0-2.67-1.24-2.67-2.5,0-2.11,1.87-3.26,5.24-3.24v-.18c0-.72-.2-2.02-1.98-2.02-.81,0-1.66.25-2.27.65l-.36-1.04c.72-.47,1.76-.77,2.86-.77,2.67,0,3.31,1.82,3.31,3.57v3.26c0,.76.04,1.5.14,2.09h-1.44ZM45.09,8.34c-1.73-.04-3.69.27-3.69,1.96,0,1.03.68,1.51,1.49,1.51,1.13,0,1.85-.72,2.11-1.46.05-.16.09-.34.09-.5v-1.51Z"/>
      <path class="cls-1" d="M56.7,0v10.53c0,.77.02,1.66.07,2.25h-1.42l-.07-1.51h-.04c-.49.97-1.55,1.71-2.97,1.71-2.11,0-3.73-1.78-3.73-4.43-.02-2.9,1.78-4.68,3.91-4.68,1.33,0,2.23.63,2.63,1.33h.04V0h1.58ZM55.12,7.62c0-.2-.02-.47-.07-.67-.23-1.01-1.1-1.84-2.29-1.84-1.64,0-2.61,1.44-2.61,3.37,0,1.76.86,3.22,2.57,3.22,1.06,0,2.04-.7,2.32-1.89.05-.22.07-.43.07-.68v-1.51Z"/>
      <path class="cls-1" d="M67.21,8.35c0,3.22-2.23,4.63-4.34,4.63-2.36,0-4.18-1.73-4.18-4.48,0-2.92,1.91-4.63,4.32-4.63s4.2,1.82,4.2,4.48ZM60.3,8.45c0,1.91,1.1,3.35,2.65,3.35s2.65-1.42,2.65-3.38c0-1.48-.74-3.35-2.61-3.35s-2.68,1.73-2.68,3.39Z"/>
      <path class="cls-1" d="M68.99,11.16c.47.31,1.3.63,2.09.63,1.15,0,1.69-.58,1.69-1.3s-.45-1.17-1.62-1.6c-1.57-.56-2.3-1.42-2.3-2.47,0-1.41,1.13-2.56,3.01-2.56.88,0,1.66.25,2.14.54l-.4,1.15c-.34-.22-.97-.5-1.78-.5-.94,0-1.46.54-1.46,1.19,0,.72.52,1.04,1.66,1.48,1.51.58,2.29,1.33,2.29,2.63,0,1.53-1.19,2.61-3.26,2.61-.96,0-1.84-.23-2.45-.59l.4-1.21Z"/>
    </g>
    <g>
      <rect class="cls-2" x="30.5" y="403.17" width="7.7" height="1"/>
      <path class="cls-4" d="M19.44,408.72v-.97l1.24-1.21c2.99-2.84,4.34-4.36,4.36-6.12,0-1.19-.58-2.29-2.32-2.29-1.06,0-1.94.54-2.48.99l-.5-1.12c.81-.68,1.96-1.19,3.31-1.19,2.52,0,3.58,1.73,3.58,3.4,0,2.16-1.57,3.91-4.03,6.28l-.94.86v.04h5.26v1.31h-7.47Z"/>
      <path class="cls-4" d="M27.22,459.03c0,3.98-1.48,6.18-4.07,6.18-2.29,0-3.84-2.14-3.87-6.01,0-3.93,1.69-6.09,4.07-6.09s3.87,2.2,3.87,5.92ZM20.86,459.21c0,3.04.94,4.77,2.38,4.77,1.62,0,2.39-1.89,2.39-4.88s-.74-4.77-2.38-4.77c-1.39,0-2.39,1.69-2.39,4.88Z"/>
    </g>
    <g>
      <rect class="cls-2" x="30.5" y="265.49" width="7.7" height="1"/>
      <path class="cls-4" d="M26.12,260.45c-.32-.02-.74,0-1.19.07-2.48.42-3.8,2.23-4.07,4.16h.05c.56-.74,1.53-1.35,2.83-1.35,2.07,0,3.53,1.49,3.53,3.78,0,2.14-1.46,4.12-3.89,4.12s-4.14-1.94-4.14-4.99c0-2.3.83-4.12,1.98-5.28.97-.95,2.27-1.55,3.75-1.73.47-.07.86-.09,1.15-.09v1.3ZM25.67,267.2c0-1.67-.95-2.68-2.41-2.68-.95,0-1.84.59-2.27,1.44-.11.18-.18.41-.18.7.04,1.93.92,3.35,2.57,3.35,1.37,0,2.29-1.13,2.29-2.81Z"/>
    </g>
    <g>
      <rect class="cls-2" x="30.5" y="196.65" width="7.7" height="1"/>
      <path class="cls-4" d="M19.3,199.22c0-1.48.88-2.52,2.32-3.13l-.02-.05c-1.3-.61-1.85-1.62-1.85-2.63,0-1.85,1.57-3.11,3.62-3.11,2.27,0,3.4,1.42,3.4,2.88,0,.99-.49,2.05-1.93,2.74v.05c1.46.58,2.36,1.6,2.36,3.02,0,2.04-1.75,3.4-3.98,3.4-2.45,0-3.93-1.46-3.93-3.17ZM25.6,199.15c0-1.42-.99-2.11-2.58-2.56-1.37.4-2.11,1.3-2.11,2.41-.05,1.19.85,2.23,2.34,2.23s2.34-.88,2.34-2.09ZM21.24,193.3c0,1.17.88,1.8,2.23,2.16,1.01-.34,1.78-1.06,1.78-2.12,0-.94-.56-1.91-1.98-1.91-1.31,0-2.03.86-2.03,1.87Z"/>
    </g>
    <g>
      <rect class="cls-2" x="30.5" y="127.8" width="7.7" height="1"/>
      <g>
        <path class="cls-4" d="M14.38,123.13h-.04l-2.03,1.1-.31-1.21,2.56-1.37h1.35v11.7h-1.53v-10.23Z"/>
        <path class="cls-4" d="M27.95,127.38c0,3.98-1.48,6.18-4.07,6.18-2.29,0-3.84-2.14-3.87-6.01,0-3.93,1.69-6.09,4.07-6.09s3.87,2.2,3.87,5.92ZM21.59,127.56c0,3.04.94,4.77,2.38,4.77,1.62,0,2.39-1.89,2.39-4.88s-.74-4.77-2.38-4.77c-1.39,0-2.4,1.69-2.4,4.88Z"/>
      </g>
    </g>
    <g>
      <rect class="cls-2" x="30.5" y="58.96" width="7.7" height="1"/>
      <g>
        <path class="cls-4" d="M14.38,54.29h-.04l-2.03,1.1-.31-1.21,2.56-1.37h1.35v11.7h-1.53v-10.23Z"/>
        <path class="cls-4" d="M20.17,64.51v-.97l1.24-1.21c2.99-2.84,4.34-4.36,4.36-6.12,0-1.19-.58-2.29-2.32-2.29-1.06,0-1.94.54-2.48.99l-.5-1.12c.81-.68,1.96-1.19,3.31-1.19,2.52,0,3.58,1.73,3.58,3.4,0,2.16-1.57,3.91-4.03,6.28l-.94.86v.04h5.26v1.31h-7.47Z"/>
      </g>
    </g>
    <g>
      <rect class="cls-2" x="30.5" y="334.33" width="7.7" height="1"/>
      <path class="cls-4" d="M24.34,339.88v-3.19h-5.44v-1.04l5.22-7.47h1.71v7.27h1.64v1.24h-1.64v3.19h-1.49ZM24.34,335.45v-3.91c0-.61.02-1.22.05-1.84h-.05c-.36.68-.65,1.19-.97,1.73l-2.86,3.98v.04h3.83Z"/>
    </g>
    <line class="cls-5" x1="38.2" y1="25.38" x2="38.2" y2="461.66"/>
    <circle class="cls-1" cx="38.2" cy="25.38" r="5.11"/>
  </g>
</svg>